# xmcd
#
# Track frame offsets: 
#        150
#        22725
#        45525
#        72675
#        91125
#        111675
#        126825
#        148725
#        167250
#        182680
#        207016
#        232216
#        269341
#        291152
#        327452
#
# Disc length: 4590 seconds
#
# Revision: 0
# Processed by: cddbd v1.5.2PL0 Copyright (c) Steve Scherf et al.
# Submitted via: ExactAudioCopyFreeDBPlugin 1.0
#
DISCID=e211ec0f
DTITLE=珠影白天鹅音像 - 中国十大民乐精华CD3
DYEAR=2014
DGENRE=A Cappella
TTITLE0=小放牛
TTITLE1=大浪淘沙
TTITLE2=小河淌水
TTITLE3=北国之春
TTITLE4=姑苏行
TTITLE5=凤阳花鼓
TTITLE6=庆丰收
TTITLE7=苏三起解
TTITLE8=多情的巴乌
TTITLE9=雪山春晓
TTITLE10=紫竹调
TTITLE11=排山倒海
TTITLE12=牧歌
TTITLE13=霸王卸甲
TTITLE14=远方的大雁
EXTD=
EXTT0=
EXTT1=
EXTT2=
EXTT3=
EXTT4=
EXTT5=
EXTT6=
EXTT7=
EXTT8=
EXTT9=
EXTT10=
EXTT11=
EXTT12=
EXTT13=
EXTT14=
PLAYORDER=
